<?xml version="1.0" standalone="no"?>
<!DOCTYPE svg PUBLIC "-//W3C//DTD SVG 20010904//EN"
 "http://www.w3.org/TR/2001/REC-SVG-20010904/DTD/svg10.dtd">
<svg version="1.0" xmlns="http://www.w3.org/2000/svg"
 width="853.000000pt" height="1280.000000pt" viewBox="0 0 853.000000 1280.000000"
 preserveAspectRatio="xMidYMid meet">
<metadata>
Created by potrace 1.16, written by Peter Selinger 2001-2019
</metadata>
<g transform="translate(0.000000,1280.000000) scale(0.100000,-0.100000)"
fill="#000000" stroke="none">
<path d="M1922 4658 c-6 -8 -9 -18 -5 -21 3 -4 -1 -7 -10 -7 -18 0 -37 -28
-52 -80 -11 -38 -50 -55 -61 -26 -3 8 -12 12 -20 9 -8 -3 -11 -9 -8 -14 3 -5
-2 -9 -10 -9 -20 0 -48 -30 -42 -46 3 -7 -2 -18 -11 -26 -13 -11 -17 -11 -21
0 -3 10 -9 9 -26 -5 -11 -10 -18 -14 -14 -9 4 4 2 13 -3 20 -5 6 -16 20 -24
31 -13 20 -14 20 -37 -2 -14 -13 -30 -23 -36 -23 -12 0 -16 -13 -13 -39 2 -7
-2 -10 -8 -6 -6 3 -11 1 -11 -5 0 -6 6 -13 13 -16 8 -3 14 -11 14 -19 0 -19
-3 -19 -26 3 -62 57 -67 60 -94 55 -14 -3 -41 -20 -59 -39 -32 -33 -62 -48
-39 -20 9 11 7 20 -14 40 -14 14 -32 26 -40 26 -8 0 -19 9 -25 20 -7 13 -21
20 -40 20 -16 0 -32 5 -36 11 -4 7 -17 0 -35 -17 -23 -22 -29 -24 -29 -11 0
11 -8 17 -22 17 -35 0 -51 -15 -51 -48 l0 -30 -25 30 c-13 16 -27 26 -30 24
-3 -3 -11 -1 -17 4 -13 11 -65 -6 -65 -21 0 -4 -8 -6 -19 -4 -34 6 -61 29 -61
52 0 28 -18 40 -26 16 -3 -10 -10 -27 -16 -38 -21 -39 -27 -50 -33 -70 -6 -19
-8 -18 -27 8 -23 32 -57 35 -83 7 -21 -23 -44 -28 -25 -5 10 12 10 15 -4 15
-9 0 -16 5 -16 12 0 6 -9 2 -20 -10 -17 -18 -24 -20 -52 -10 -18 6 -44 17 -58
25 -40 21 -81 15 -129 -17 -34 -23 -47 -27 -53 -18 -4 7 -8 9 -8 3 0 -5 -5 -2
-11 8 -5 9 -17 17 -25 17 -8 0 -13 4 -9 9 3 6 -11 18 -30 27 -33 15 -36 20
-34 53 2 22 -4 47 -13 60 l-16 22 -21 -27 -21 -27 -12 31 c-14 35 -41 42 -54
15 -5 -10 -10 -1045 -12 -2300 l-2 -2283 4265 0 4265 0 0 2131 0 2130 -21 -6
c-15 -5 -22 -2 -26 14 -3 12 -9 21 -13 21 -19 0 -65 -31 -77 -52 l-13 -23 -6
23 c-6 21 -34 32 -34 12 0 -5 -7 -7 -15 -4 -8 4 -13 10 -10 14 3 4 -6 15 -20
24 -14 9 -26 13 -26 9 -1 -5 -2 -12 -4 -18 -1 -5 -3 -15 -3 -21 -4 -24 -92 -2
-92 22 0 8 -4 14 -10 14 -5 0 -10 -11 -10 -25 0 -32 -16 -33 -22 -1 -4 20 0
26 21 31 24 6 25 8 8 19 -9 7 -17 17 -17 22 -1 13 -44 60 -61 67 -11 4 -11 6
0 6 11 1 11 4 1 16 -8 9 -22 12 -43 8 -44 -8 -51 -16 -49 -63 2 -38 -9 -52
-23 -30 -4 6 -15 4 -29 -6 -20 -12 -26 -13 -37 -1 -15 15 -39 12 -39 -5 0 -16
-57 -68 -74 -68 -8 0 -16 -5 -18 -12 -2 -6 -10 -8 -17 -4 -7 4 -47 9 -91 9
-43 1 -76 5 -74 9 2 3 -10 9 -26 13 -25 5 -30 11 -25 26 4 10 2 19 -4 19 -5 0
-12 8 -15 18 -6 17 -55 52 -73 52 -4 0 0 -5 10 -11 25 -15 22 -32 -4 -19 -13
7 -25 8 -32 2 -7 -5 -31 -12 -55 -15 -31 -4 -52 -14 -73 -36 -16 -18 -43 -34
-60 -38 -16 -3 -32 -10 -35 -14 -9 -15 -28 -10 -54 14 -37 34 -58 40 -65 16
-4 -10 -15 -19 -25 -19 -10 0 -25 -3 -34 -6 -11 -4 -16 -1 -16 11 0 9 -5 13
-10 10 -6 -3 -13 2 -17 12 -7 21 -46 60 -85 85 -15 10 -29 27 -33 38 -9 28
-34 25 -45 -6 -14 -35 -14 -35 20 -74 24 -28 27 -36 15 -43 -8 -4 -15 -21 -15
-37 0 -34 -14 -39 -30 -11 -7 13 -7 22 0 26 5 3 10 17 10 31 0 18 -5 24 -21
24 -19 0 -20 -4 -14 -41 5 -29 4 -40 -4 -35 -6 4 -11 14 -11 22 0 11 -4 13
-17 5 -14 -8 -23 -4 -40 17 -21 25 -24 26 -37 10 -14 -19 -46 -24 -46 -8 0 6
-9 10 -21 10 -13 0 -18 -4 -13 -12 4 -7 3 -8 -4 -4 -6 4 -25 9 -42 11 -27 3
-30 1 -25 -16 5 -16 1 -19 -23 -19 -16 0 -35 7 -42 15 -7 8 -17 12 -22 9 -5
-4 -8 4 -6 17 2 17 -1 23 -12 20 -8 -2 -29 -4 -46 -5 -17 -1 -43 -10 -58 -19
-14 -10 -31 -15 -36 -12 -5 3 -32 -17 -59 -44 -27 -27 -52 -47 -55 -44 -3 4
-6 1 -6 -5 0 -22 -15 -12 -28 18 -15 33 -33 38 -53 14 -12 -15 -15 -13 -35 11
-21 26 -48 28 -39 2 8 -22 -11 -40 -31 -29 -11 5 -32 15 -49 22 -16 7 -38 16
-47 21 -10 5 -31 9 -48 9 -23 0 -30 -5 -30 -19 0 -20 -45 -81 -60 -81 -4 0
-11 11 -14 25 -3 13 -15 29 -26 35 -11 6 -20 17 -20 25 0 14 -50 55 -68 55 -9
0 -34 -54 -28 -62 2 -1 6 -15 10 -31 6 -26 6 -27 -11 -10 -11 11 -18 31 -17
50 1 43 -18 48 -45 12 -12 -16 -26 -29 -31 -29 -5 0 -18 20 -29 45 -22 49 -26
52 -55 30 -17 -13 -21 -12 -33 3 -12 16 -14 16 -27 -1 -13 -17 -15 -17 -23 -2
-13 22 -43 8 -43 -20 0 -24 -20 -47 -20 -23 0 7 -14 29 -30 48 -28 34 -29 35
-44 15 -15 -20 -15 -20 -16 1 0 41 -28 35 -65 -13 -19 -25 -35 -54 -35 -64 0
-45 -52 -26 -55 20 -3 37 -21 53 -47 45 -9 -2 -20 1 -24 7 -5 9 -11 7 -20 -6
-12 -16 -14 -16 -29 -1 -18 18 -35 13 -35 -10 0 -10 -8 -14 -24 -11 -28 3 -58
26 -51 38 6 9 -16 49 -28 49 -4 0 -15 -15 -24 -34 -12 -26 -21 -33 -36 -30
-23 4 -57 -22 -57 -44 0 -8 -6 -12 -14 -9 -7 3 -17 2 -22 -3 -12 -10 -54 6
-54 21 0 7 -8 5 -20 -6 -22 -20 -27 -18 -44 17 -16 32 -34 33 -47 4 -13 -28
-29 -35 -29 -12 0 7 -7 19 -16 26 -13 12 -22 7 -60 -33 l-44 -46 -14 28 c-18
34 -109 84 -125 68 -6 -6 -11 -19 -11 -29 0 -28 -15 -21 -32 16 -17 35 -65 57
-78 36 -9 -15 -60 38 -53 56 3 9 -1 14 -12 14 -9 0 -25 10 -35 23 l-18 22 -26
-24 c-14 -14 -26 -29 -26 -34 0 -5 -12 -20 -26 -33 -14 -13 -22 -29 -19 -34 3
-5 2 -17 -3 -26 -8 -14 -9 -12 -9 10 0 15 -7 34 -15 43 -13 13 -18 11 -40 -16
-25 -28 -27 -29 -42 -12 -9 10 -16 21 -16 25 0 12 -28 36 -42 36 -16 0 -58
-44 -58 -61 0 -7 -16 -9 -47 -5 -26 3 -52 1 -59 -5 -9 -7 -18 -2 -35 20 -24
32 -49 31 -49 -3 0 -14 -10 -26 -30 -34 -17 -8 -36 -25 -44 -39 l-13 -26 -19
32 c-19 33 -46 35 -70 5 -6 -8 -19 -12 -28 -8 -9 3 -16 1 -16 -5 0 -6 -9 -11
-20 -11 -11 0 -20 -4 -20 -10 0 -15 -32 1 -58 28 -17 18 -26 22 -35 13 -19
-19 -33 -12 -47 23 -8 22 -22 37 -37 41 -35 8 -43 -1 -43 -48 -1 -33 -3 -38
-11 -24 -5 9 -15 17 -22 17 -7 0 -17 10 -22 22 -6 12 -18 26 -28 32 -15 9 -22
7 -34 -11 -9 -13 -24 -23 -35 -23 -11 0 -31 -9 -45 -20 -14 -11 -29 -18 -33
-15 -4 3 -13 -2 -20 -10 -17 -20 -30 -19 -30 3 0 9 -9 28 -20 42 -19 24 -21
24 -31 6 -33 -54 -82 -67 -107 -27 -35 54 -41 54 -94 -14 -37 -48 -44 -52 -50
-36 -12 33 -53 54 -77 41 -12 -6 -21 -17 -21 -24 0 -12 -6 -12 -30 -3 -20 7
-30 18 -30 32 0 11 -7 29 -15 39 -19 25 -19 36 -1 36 26 0 26 51 0 77 -13 12
-28 23 -34 23 -5 0 -10 5 -10 11 0 5 4 8 9 5 14 -9 32 20 24 40 -4 10 -31 43
-60 73 -47 47 -60 55 -101 59 -34 3 -51 0 -60 -10z"/>
</g>
</svg>
